Coordinates
version=1
nRows=7
nColumns=40
inDegrees=yes

Units are S.I. units (second, meters, Newtons, ...)
If the header above contains a line with 'inDegrees', this indicates whether rotational values are in degrees (yes) or radians (no).

endheader
time	pelvis_tilt	pelvis_list	pelvis_rotation	pelvis_tx	pelvis_ty	pelvis_tz	hip_flexion_r	hip_adduction_r	hip_rotation_r	knee_angle_r	knee_angle_r_beta	ankle_angle_r	subtalar_angle_r	mtp_angle_r	hip_flexion_l	hip_adduction_l	hip_rotation_l	knee_angle_l	knee_angle_l_beta	ankle_angle_l	subtalar_angle_l	mtp_angle_l	lumbar_extension	lumbar_bending	lumbar_rotation	arm_flex_r	arm_add_r	arm_rot_r	elbow_flex_r	pro_sup_r	wrist_flex_r	wrist_dev_r	arm_flex_l	arm_add_l	arm_rot_l	elbow_flex_l	pro_sup_l	wrist_flex_l	wrist_dev_l
      2.50000000	      2.24465377	      0.77163735	      3.70113348	     -0.26229540	      1.05073740	     -1.17247636	     -6.54073851	     -3.00368078	     -0.41365857	     71.47692249	      1.24750764	     -9.16872816	      0.00000000	      0.00000000	      6.44858968	      5.35562495	     -0.46263098	     20.09938230	      0.35080040	     -1.17858694	      0.00000000	      0.00000000	    -16.25331690	     -4.69614889	     -0.57820671	     76.49490697	     -3.17928802	     32.39689345	     37.42845227	     86.35027270	      0.00000000	      0.00000000	     87.68417662	    -10.35291057	     55.46948711	     38.01265133	     86.56087583	      0.00000000	      0.00000000
      2.50500000	      2.26684076	      0.77304339	      3.75383144	     -0.26255426	      1.05080416	     -1.17270717	     -6.59575069	     -3.04387866	     -0.50262043	     71.43491714	      1.24677450	     -9.19614582	      0.00000000	      0.00000000	      6.43390403	      5.36656110	     -0.36706267	     20.10106072	      0.35082969	     -1.16121375	      0.00000000	      0.00000000	    -16.33585744	     -4.67973373	     -0.65158305	     76.55194193	     -3.15836934	     32.37706050	     37.43398029	     86.21755462	      0.00000000	      0.00000000	     87.71451316	    -10.27845778	     55.33990143	     37.91842935	     86.67870436	      0.00000000	      0.00000000
      2.51000000	      2.21000428	      0.76898392	      3.73167704	     -0.26285689	      1.05065216	     -1.17289797	     -6.48790513	     -3.11000589	     -0.52822060	     71.49750576	      1.24786688	     -9.62263434	      0.00000000	      0.00000000	      6.56914201	      5.34287732	     -0.55440637	     20.20479775	      0.35264025	     -1.24221306	      0.00000000	      0.00000000	    -16.32226668	     -4.62849182	     -0.70677973	     76.81513117	     -3.28854791	     33.58998441	     37.46412820	     85.41495271	      0.00000000	      0.00000000	     87.71069085	    -10.40628340	     55.19892679	     38.07463030	     87.02926251	      0.00000000	      0.00000000
      2.51500000	      2.18596412	      0.83339977	      3.76406395	     -0.26302082	      1.05067812	     -1.17303549	     -6.54088287	     -3.17210501	     -0.51106301	     71.47120614	      1.24740787	     -9.18922714	      0.00000000	      0.00000000	      6.51138617	      5.43173954	     -0.45913851	     20.00073772	      0.34907873	     -1.26522222	      0.00000000	      0.00000000	    -16.34688983	     -4.73028312	     -0.75791923	     76.63063899	     -3.07607496	     32.32651823	     37.48822928	     86.21340654	      0.00000000	      0.00000000	     87.79490385	    -10.26964430	     55.29151442	     37.84980688	     86.83432225	      0.00000000	      0.00000000
      2.52000000	      2.12521839	      0.79420725	      3.81988750	     -0.26333348	      1.05055317	     -1.17320781	     -6.49125745	     -3.15073505	     -0.55661652	     71.48319407	      1.24761710	     -9.26614820	      0.00000000	      0.00000000	      6.63329993	      5.39538351	     -0.39086082	     20.08676861	      0.35058025	     -1.31620265	      0.00000000	      0.00000000	    -16.35396289	     -4.69983380	     -0.79793470	     76.65146335	     -3.31761707	     32.91763705	     37.91179204	     85.05254859	      0.00000000	      0.00000000	     88.10090750	    -10.39115296	     56.34227951	     37.97676606	     86.43436145	      0.00000000	      0.00000000
      2.52500000	      2.18547994	      0.85827052	      3.83161151	     -0.26351901	      1.05064123	     -1.17344763	     -6.60495830	     -3.25100315	     -0.58335523	     71.43602031	      1.24679376	     -9.27559496	      0.00000000	      0.00000000	      6.55055992	      5.46610633	     -0.42643468	     20.05066161	      0.34995006	     -1.17646386	      0.00000000	      0.00000000	    -16.46726976	     -4.72949978	     -0.87325228	     76.70542853	     -3.12437354	     32.40036920	     37.67984125	     86.44530963	      0.00000000	      0.00000000	     87.90681067	    -10.24239017	     55.31837674	     37.80709745	     86.68866368	      0.00000000	      0.00000000
      2.53000000	      2.19001646	      0.81950821	      3.85670516	     -0.26379137	      1.05062602	     -1.17351976	     -6.64205851	     -3.21312772	     -0.56611679	     71.40833121	      1.24631049	     -9.18789029	      0.00000000	      0.00000000	      6.56455532	      5.41360354	     -0.40188118	     20.05944999	      0.35010345	     -1.11268815	      0.00000000	      0.00000000	    -16.53361631	     -4.69231651	     -0.96597450	     76.77970136	     -3.08090840	     32.56009239	     37.72205278	     86.08545175	      0.00000000	      0.00000000	     88.01911447	    -10.35007522	     55.60798714	     37.86377162	     86.74943820	      0.00000000	      0.00000000
